<mxfile host="app.diagrams.net" agent="Mozilla/5.0 (Windows NT 10.0; Win64; x64) AppleWebKit/537.36 (KHTML, like Gecko) Chrome/133.0.0.0 Safari/537.36" version="26.0.16">
  <diagram name="Pagina-1" id="-eVOkXbQG0IB8HP07MYX">
    <mxGraphModel dx="1032" dy="539" grid="1" gridSize="10" guides="1" tooltips="1" connect="1" arrows="1" fold="1" page="1" pageScale="1" pageWidth="583" pageHeight="827" math="0" shadow="0">
      <root>
        <mxCell id="0" />
        <mxCell id="1" parent="0" />
        <mxCell id="Quj6y4gYhRoZtVt45WZ1-1" value="" style="rounded=0;whiteSpace=wrap;html=1;" vertex="1" parent="1">
          <mxGeometry x="255" y="250" width="940" height="820" as="geometry" />
        </mxCell>
        <mxCell id="Quj6y4gYhRoZtVt45WZ1-2" style="edgeStyle=none;curved=1;rounded=0;orthogonalLoop=1;jettySize=auto;html=1;entryX=0;entryY=0.5;entryDx=0;entryDy=0;fontSize=12;startSize=8;endSize=8;" edge="1" parent="1" target="Quj6y4gYhRoZtVt45WZ1-26">
          <mxGeometry relative="1" as="geometry">
            <mxPoint x="195" y="530" as="sourcePoint" />
          </mxGeometry>
        </mxCell>
        <object label="&lt;b&gt;User&lt;/b&gt;" id="Quj6y4gYhRoZtVt45WZ1-3">
          <mxCell style="shape=umlActor;verticalLabelPosition=bottom;verticalAlign=top;html=1;outlineConnect=0;" vertex="1" parent="1">
            <mxGeometry x="160" y="500" width="30" height="60" as="geometry" />
          </mxCell>
        </object>
        <mxCell id="Quj6y4gYhRoZtVt45WZ1-4" value="&lt;b&gt;Premium&lt;br&gt;User&lt;/b&gt;" style="shape=umlActor;verticalLabelPosition=bottom;verticalAlign=top;html=1;outlineConnect=0;" vertex="1" parent="1">
          <mxGeometry x="160" y="778" width="30" height="60" as="geometry" />
        </mxCell>
        <mxCell id="Quj6y4gYhRoZtVt45WZ1-5" value="&lt;b&gt;*Log In&lt;/b&gt;" style="ellipse;whiteSpace=wrap;html=1;" vertex="1" parent="1">
          <mxGeometry x="785" y="698" width="120" height="80" as="geometry" />
        </mxCell>
        <mxCell id="Quj6y4gYhRoZtVt45WZ1-6" value="&lt;b&gt;Buy&amp;nbsp;&lt;/b&gt;&lt;div&gt;&lt;b&gt;&lt;i&gt;pokè lab&lt;/i&gt;&lt;/b&gt;&lt;/div&gt;" style="ellipse;whiteSpace=wrap;html=1;" vertex="1" parent="1">
          <mxGeometry x="295" y="708" width="120" height="80" as="geometry" />
        </mxCell>
        <mxCell id="Quj6y4gYhRoZtVt45WZ1-7" value="" style="endArrow=classic;html=1;rounded=0;entryX=0;entryY=0;entryDx=0;entryDy=0;" edge="1" parent="1" target="Quj6y4gYhRoZtVt45WZ1-6">
          <mxGeometry width="50" height="50" relative="1" as="geometry">
            <mxPoint x="195" y="810" as="sourcePoint" />
            <mxPoint x="585" y="920" as="targetPoint" />
          </mxGeometry>
        </mxCell>
        <mxCell id="Quj6y4gYhRoZtVt45WZ1-8" style="edgeStyle=none;curved=1;rounded=0;orthogonalLoop=1;jettySize=auto;html=1;exitX=1;exitY=0.5;exitDx=0;exitDy=0;fontSize=12;startSize=8;endSize=8;" edge="1" parent="1" source="Quj6y4gYhRoZtVt45WZ1-9">
          <mxGeometry relative="1" as="geometry">
            <mxPoint x="1235" y="500" as="targetPoint" />
          </mxGeometry>
        </mxCell>
        <mxCell id="Quj6y4gYhRoZtVt45WZ1-9" value="&lt;b&gt;Buy&lt;/b&gt;&lt;br&gt;&lt;div&gt;&lt;b&gt;&amp;nbsp;&lt;i&gt;classic&lt;/i&gt;&lt;/b&gt;&lt;/div&gt;&lt;div&gt;&lt;b&gt;&lt;i&gt;pokè&amp;nbsp;&lt;/i&gt;&lt;/b&gt;&lt;/div&gt;" style="ellipse;whiteSpace=wrap;html=1;" vertex="1" parent="1">
          <mxGeometry x="330" y="374" width="120" height="80" as="geometry" />
        </mxCell>
        <mxCell id="Quj6y4gYhRoZtVt45WZ1-10" value="" style="endArrow=classic;html=1;rounded=0;entryX=0;entryY=0.5;entryDx=0;entryDy=0;" edge="1" parent="1" target="Quj6y4gYhRoZtVt45WZ1-9">
          <mxGeometry width="50" height="50" relative="1" as="geometry">
            <mxPoint x="195" y="530" as="sourcePoint" />
            <mxPoint x="585" y="610" as="targetPoint" />
          </mxGeometry>
        </mxCell>
        <mxCell id="Quj6y4gYhRoZtVt45WZ1-15" value="&lt;b&gt;Google&lt;/b&gt;&lt;div&gt;&lt;b&gt;Authanticator&lt;/b&gt;&lt;/div&gt;&lt;div&gt;&lt;br&gt;&lt;/div&gt;" style="shape=umlActor;verticalLabelPosition=bottom;verticalAlign=top;html=1;outlineConnect=0;" vertex="1" parent="1">
          <mxGeometry x="1244" y="708" width="30" height="60" as="geometry" />
        </mxCell>
        <mxCell id="Quj6y4gYhRoZtVt45WZ1-16" value="" style="endArrow=classic;html=1;rounded=0;exitX=1;exitY=0.5;exitDx=0;exitDy=0;" edge="1" parent="1" source="Quj6y4gYhRoZtVt45WZ1-29" target="Quj6y4gYhRoZtVt45WZ1-15">
          <mxGeometry width="50" height="50" relative="1" as="geometry">
            <mxPoint x="445" y="510" as="sourcePoint" />
            <mxPoint x="1285" y="520" as="targetPoint" />
          </mxGeometry>
        </mxCell>
        <mxCell id="Quj6y4gYhRoZtVt45WZ1-18" value="&lt;b&gt;System&lt;/b&gt;&lt;div&gt;&lt;br&gt;&lt;/div&gt;" style="text;html=1;align=center;verticalAlign=middle;whiteSpace=wrap;rounded=0;" vertex="1" parent="1">
          <mxGeometry x="695" y="260" width="60" height="30" as="geometry" />
        </mxCell>
        <mxCell id="Quj6y4gYhRoZtVt45WZ1-19" value="&lt;b&gt;Comment other&#39;s&lt;/b&gt;&lt;div&gt;&lt;b&gt;&lt;i&gt;pokè lab&lt;/i&gt;&lt;/b&gt;&lt;/div&gt;" style="ellipse;whiteSpace=wrap;html=1;" vertex="1" parent="1">
          <mxGeometry x="295" y="918" width="120" height="80" as="geometry" />
        </mxCell>
        <mxCell id="Quj6y4gYhRoZtVt45WZ1-20" value="" style="endArrow=classic;html=1;rounded=0;entryX=0;entryY=0.5;entryDx=0;entryDy=0;" edge="1" parent="1" target="Quj6y4gYhRoZtVt45WZ1-19">
          <mxGeometry width="50" height="50" relative="1" as="geometry">
            <mxPoint x="195" y="810" as="sourcePoint" />
            <mxPoint x="665" y="700" as="targetPoint" />
          </mxGeometry>
        </mxCell>
        <mxCell id="Quj6y4gYhRoZtVt45WZ1-21" value="&lt;b&gt;Publish&lt;/b&gt;&lt;div&gt;&lt;b&gt;&lt;i&gt;pokè lab&lt;/i&gt;&amp;nbsp;&lt;/b&gt;&lt;/div&gt;" style="ellipse;whiteSpace=wrap;html=1;" vertex="1" parent="1">
          <mxGeometry x="620" y="900" width="120" height="80" as="geometry" />
        </mxCell>
        <mxCell id="Quj6y4gYhRoZtVt45WZ1-22" value="&amp;lt;&amp;lt;extend&amp;gt;&amp;gt;" style="endArrow=classic;html=1;rounded=0;entryX=1;entryY=0.5;entryDx=0;entryDy=0;dashed=1;" edge="1" parent="1" source="Quj6y4gYhRoZtVt45WZ1-21" target="Quj6y4gYhRoZtVt45WZ1-6">
          <mxGeometry width="50" height="50" relative="1" as="geometry">
            <mxPoint x="635" y="885" as="sourcePoint" />
            <mxPoint x="421" y="936" as="targetPoint" />
          </mxGeometry>
        </mxCell>
        <mxCell id="Quj6y4gYhRoZtVt45WZ1-26" value="&lt;b&gt;Leave a rating&lt;/b&gt;" style="ellipse;whiteSpace=wrap;html=1;" vertex="1" parent="1">
          <mxGeometry x="330" y="530" width="120" height="80" as="geometry" />
        </mxCell>
        <mxCell id="Quj6y4gYhRoZtVt45WZ1-28" value="" style="endArrow=block;html=1;rounded=0;endFill=0;" edge="1" parent="1">
          <mxGeometry width="50" height="50" relative="1" as="geometry">
            <mxPoint x="175" y="755" as="sourcePoint" />
            <mxPoint x="174.44" y="595" as="targetPoint" />
          </mxGeometry>
        </mxCell>
        <mxCell id="Quj6y4gYhRoZtVt45WZ1-29" value="&lt;b&gt;Google&amp;nbsp;&lt;/b&gt;&lt;div&gt;&lt;b&gt;Log In&lt;/b&gt;&lt;/div&gt;" style="ellipse;whiteSpace=wrap;html=1;" vertex="1" parent="1">
          <mxGeometry x="1035" y="698" width="120" height="80" as="geometry" />
        </mxCell>
        <mxCell id="Quj6y4gYhRoZtVt45WZ1-30" value="&amp;lt;&amp;lt;extend&amp;gt;&amp;gt;" style="endArrow=classic;html=1;rounded=0;exitX=0;exitY=0.5;exitDx=0;exitDy=0;entryX=1;entryY=0.5;entryDx=0;entryDy=0;dashed=1;" edge="1" parent="1" source="Quj6y4gYhRoZtVt45WZ1-29" target="Quj6y4gYhRoZtVt45WZ1-5">
          <mxGeometry width="50" height="50" relative="1" as="geometry">
            <mxPoint x="1075" y="790" as="sourcePoint" />
            <mxPoint x="1125" y="740" as="targetPoint" />
          </mxGeometry>
        </mxCell>
        <mxCell id="Quj6y4gYhRoZtVt45WZ1-31" value="&lt;b&gt;Pokè restaurant&lt;/b&gt;" style="shape=umlActor;verticalLabelPosition=bottom;verticalAlign=top;html=1;outlineConnect=0;" vertex="1" parent="1">
          <mxGeometry x="1244" y="460" width="30" height="60" as="geometry" />
        </mxCell>
        <mxCell id="Quj6y4gYhRoZtVt45WZ1-33" value="&amp;lt;&amp;lt;extend&amp;gt;&amp;gt;" style="endArrow=classic;html=1;rounded=0;exitX=1;exitY=0.5;exitDx=0;exitDy=0;entryX=0;entryY=1;entryDx=0;entryDy=0;dashed=1;" edge="1" parent="1" source="Quj6y4gYhRoZtVt45WZ1-19" target="Quj6y4gYhRoZtVt45WZ1-21">
          <mxGeometry x="-0.3599" y="-2" width="50" height="50" relative="1" as="geometry">
            <mxPoint x="1010.1435931288072" y="958.4357287525381" as="sourcePoint" />
            <mxPoint x="764.9964068711927" y="850.0042712474617" as="targetPoint" />
            <mxPoint as="offset" />
          </mxGeometry>
        </mxCell>
        <mxCell id="Quj6y4gYhRoZtVt45WZ1-35" value="*All use cases include Log In" style="text;html=1;align=center;verticalAlign=middle;resizable=0;points=[];autosize=1;strokeColor=none;fillColor=none;fontSize=16;" vertex="1" parent="1">
          <mxGeometry x="590" y="1090" width="270" height="40" as="geometry" />
        </mxCell>
        <mxCell id="Quj6y4gYhRoZtVt45WZ1-49" value="" style="endArrow=classic;html=1;rounded=0;exitX=0.958;exitY=0.275;exitDx=0;exitDy=0;exitPerimeter=0;" edge="1" parent="1" source="Quj6y4gYhRoZtVt45WZ1-6">
          <mxGeometry width="50" height="50" relative="1" as="geometry">
            <mxPoint x="205" y="820" as="sourcePoint" />
            <mxPoint x="1230" y="510" as="targetPoint" />
          </mxGeometry>
        </mxCell>
      </root>
    </mxGraphModel>
  </diagram>
</mxfile>
